<?xml version="1.0" encoding="utf-8"?>
<!-- Generator: Adobe Illustrator 22.0.1, SVG Export Plug-In . SVG Version: 6.00 Build 0)  -->
<svg version="1.1" id="Capa_1" xmlns="http://www.w3.org/2000/svg" xmlns:xlink="http://www.w3.org/1999/xlink" x="0px" y="0px"
	 viewBox="0 0 92.4 92.4" style="enable-background:new 0 0 92.4 92.4;" xml:space="preserve">
<style type="text/css">
	.st0{fill:#BED600;}
	.st1{fill:#006937;}
	.st2{fill:#76BC21;}
</style>
<title>referencias</title>
<g>
	<g>
		<g>
			<path class="st0" d="M89.4,46.2c-0.3,18.2-11.6,34.8-29,40.9c-16.9,5.9-36,0.5-47.5-13.1C1.3,60-0.3,39.6,9,24
				C18.3,8.5,36.9,0.2,54.6,3.8C74.9,7.8,89.1,25.8,89.4,46.2c0,1.9,3,1.9,3,0c-0.3-19.1-11.9-36.5-30-43.3
				C44.2-4,22.8,1.7,10.4,16.9c-12.2,14.9-13.9,36.5-4,53.1c9.9,16.5,29.4,25.2,48.3,21.7c21.8-4,37.3-23.5,37.7-45.5
				C92.5,44.3,89.5,44.3,89.4,46.2z"/>
		</g>
	</g>
	<g>
		<g>
			<path class="st1" d="M40.5,71.3c-0.2,0-0.4,0-0.6-0.1c-0.6-0.3-0.9-1.1-0.6-1.7l3.9-8c0.3-0.6,1.1-0.9,1.7-0.6
				c0.6,0.3,0.9,1.1,0.6,1.7l-3.9,8C41.4,71.1,41,71.3,40.5,71.3z"/>
		</g>
		<g>
			<polygon class="st2" points="39.7,69.4 14.8,30 18.8,23.3 43.5,60.5 			"/>
		</g>
		<g>
			<path class="st2" d="M75.5,62l-30.8,0.6L18,22.4h7.4l18,28.1c0,0,5.2,7.3,10.7,7.3c5.6,0,18.7,0,18.7,0L75.5,62z"/>
		</g>
		<g>
			<path class="st1" d="M74.3,71.5H40.1c-0.4,0-0.8-0.2-1.1-0.6L13.7,30.7c-0.2-0.4-0.3-0.9,0-1.3l4.2-7.7c0.2-0.4,0.6-0.7,1.1-0.7
				h30.7c0.4,0,0.8,0.2,1,0.6l26.3,39.4c0.5,0.2,0.9,0.8,0.8,1.4c0,0.3,0,0.5-0.1,0.8c0,0.1-0.1,0.1-0.1,0.2l-2.1,7.2
				C75.3,71.2,74.8,71.5,74.3,71.5z M40.8,69h32.5l1.5-5.2H44.7c-0.4,0-0.8-0.2-1-0.6L18.6,25.7l-2.3,4.3L40.8,69z M45.4,61.3h28.8
				L49,23.6H20.1c0.1,0.1,0.2,0.2,0.3,0.3L45.4,61.3z"/>
		</g>
		<g>
			<polyline class="st1" points="28.6,28.5 48.8,28.5 52.8,33.2 31.9,33.2 			"/>
		</g>
		<g>
			<path class="st1" d="M48.6,77.7H36.7c-0.4,0-0.9-0.2-1.1-0.6L23.3,56.7c-0.4-0.6-0.2-1.4,0.4-1.7c0.6-0.4,1.4-0.2,1.7,0.4
				l11.9,19.7h11.2c0.7,0,1.3,0.6,1.3,1.3C49.8,77.1,49.3,77.7,48.6,77.7z"/>
		</g>
		<g>
			<path class="st1" d="M56.1,77.7h-1.8c-0.7,0-1.3-0.6-1.3-1.3c0-0.7,0.6-1.3,1.3-1.3h1.8c0.7,0,1.3,0.6,1.3,1.3
				C57.4,77.1,56.8,77.7,56.1,77.7z"/>
		</g>
	</g>
</g>
</svg>
